# xmcd
#
# Track frame offsets:
# 182
# 15035
# 27907
# 45405
# 62012
# 79905
# 95267
# 107257
# 122920
# 133525
# 144567
# 156452
# 178587
# 196325
# 209335
# 222212
# 237065
#
# Disc length: 3360 seconds
#
#
# Revision: 0
# Processed by: cddbd v1.5.1PL2 Copyright (c) Steve Scherf et al.
# Submitted via: FreeRIP 2.945 
#
DISCID=dc0d1e11
DTITLE=Various Artist - Only you
DYEAR=1900
DGENRE=Blues
TTITLE0=The tracks of my tears
TTITLE1=Hello world
TTITLE2=Kepp it comin love
TTITLE3=In the summertime
TTITLE4=Do you love me
TTITLE5=Dedicated to the one I love
TTITLE6=You made me believe in magic
TTITLE7=You've got your troubles
TTITLE8=Surfer girl
TTITLE9=Sweets for my sweet
TTITLE10=Only you
TTITLE11=Morning has broken
TTITLE12=Just a little misunderstood
TTITLE13=Short people
TTITLE14=Spicks and specks
TTITLE15=Rainbow
TTITLE16=We had it all
EXTD=ARC Records The magic collection
EXTT0=Paul young and the Q-tips
EXTT1=The Tremeloes
EXTT2=KC and the Sunshineband
EXTT3=Mungo Jerry
EXTT4=David Hasselhoff
EXTT5=The mama's and the papa's
EXTT6=The bay city rollers
EXTT7=The fortunes
EXTT8=The beach boys
EXTT9=The searches
EXTT10=The platters
EXTT11=Demis Roussos
EXTT12=Rod Stewart
EXTT13=The drifters
EXTT14=The bee gees
EXTT15=The marmelade
EXTT16=
PLAYORDER=
